<svg width="32" height="32" viewBox="0 0 32 32" fill="none" xmlns="http://www.w3.org/2000/svg">
<path d="M16 6C16.3788 6 16.7251 6.214 16.8945 6.55279L19.4734 11.7106L25.144 12.5354C25.5206 12.5902 25.8335 12.854 25.9511 13.216C26.0687 13.578 25.9706 13.9753 25.6981 14.241L21.571 18.2649L22.4994 23.9385C22.5608 24.3135 22.4043 24.6908 22.0957 24.9124C21.787 25.1339 21.3794 25.1614 21.0438 24.9834L16 22.3071L10.9562 24.9834C10.6206 25.1614 10.2131 25.1339 9.9044 24.9124C9.59573 24.6908 9.4393 24.3135 9.50065 23.9385L10.4291 18.2649L6.30193 14.241C6.02942 13.9753 5.93136 13.578 6.04897 13.216C6.16658 12.854 6.47946 12.5902 6.85609 12.5354L12.5267 11.7106L15.1056 6.55279C15.275 6.214 15.6213 6 16 6ZM16 9.23607L14.082 13.0722C13.9356 13.3649 13.6553 13.5675 13.3315 13.6146L9.14842 14.223L12.1981 17.1965C12.4318 17.4243 12.5396 17.7519 12.4869 18.074L11.8 22.2715L15.5313 20.2917C15.8244 20.1361 16.1756 20.1361 16.4687 20.2917L20.2 22.2715L19.5132 18.074C19.4604 17.7519 19.5682 17.4243 19.8019 17.1965L22.8516 14.223L18.6686 13.6146C18.3448 13.5675 18.0645 13.3649 17.9181 13.0722L16 9.23607Z" fill="#0D0D0D"/>
</svg>
