<svg width="12" height="12" viewBox="0 0 12 12" fill="none" xmlns="http://www.w3.org/2000/svg">
<path d="M3.74595 5.44695C3.79855 5.5347 3.89857 5.5894 4.00736 5.5894H5.70129V8.59964C5.70129 8.75164 5.83518 8.875 6.00015 8.875C6.16512 8.875 6.29901 8.75164 6.29901 8.59964V5.5894H7.99295C8.10213 5.5894 8.20215 5.5347 8.25435 5.44695C8.30735 5.3592 8.30376 5.25199 8.24598 5.16718L6.25319 2.2535C6.1982 2.17346 6.10296 2.125 6.00015 2.125C5.89734 2.125 5.80211 2.17346 5.74712 2.2535L3.75432 5.16718C3.72404 5.21197 3.7085 5.26301 3.7085 5.31404C3.7085 5.35957 3.72125 5.40546 3.74595 5.44695" fill="#08CB85"/>
</svg>
