<svg width="24" height="24" viewBox="0 0 24 24" fill="none" xmlns="http://www.w3.org/2000/svg">
<path d="M6.75 10.7394V4.8C6.26675 4.8 5.875 4.39706 5.875 3.9C5.875 3.40294 6.26675 3 6.75 3H17.25C17.7332 3 18.125 3.40294 18.125 3.9C18.125 4.39706 17.7332 4.8 17.25 4.8V10.7394C18.0653 11.6581 18.5031 12.5707 18.7363 13.2904C18.8641 13.6847 18.9299 14.0192 18.9639 14.2633C18.9808 14.3855 18.9899 14.4854 18.9946 14.5593C18.997 14.5962 18.9984 14.6267 18.9991 14.6503L18.9997 14.6713L18.9998 14.6805L19 14.6916L19 14.6961L19 14.6982L19 14.6991C19 14.6991 18.996 14.5809 19 14.7C19 15.1971 18.6082 15.6 18.125 15.6H12.875V20.1C12.875 20.5971 12.4832 21 12 21C11.5168 21 11.125 20.5971 11.125 20.1V15.6H5.875C5.39175 15.6 5 15.1971 5 14.7C5 14.25 5 14.6991 5 14.6991L5 14.6982L5.00001 14.6961L5.00003 14.6916L5.00016 14.6805C5.00029 14.6722 5.00051 14.6621 5.00088 14.6503C5.00162 14.6267 5.00296 14.5962 5.00536 14.5593C5.01014 14.4854 5.01917 14.3855 5.03614 14.2633C5.07005 14.0192 5.13587 13.6847 5.26365 13.2904C5.49689 12.5707 5.93471 11.6581 6.75 10.7394ZM15.5 4.8H8.5V11.1C8.5 11.3387 8.40781 11.5676 8.24372 11.7364C7.50258 12.4987 7.1313 13.2469 6.94362 13.8H17.0564C16.8687 13.2469 16.4974 12.4987 15.7563 11.7364C15.5922 11.5676 15.5 11.3387 15.5 11.1V4.8Z" fill="#343F48" fill-opacity="0.75"/>
</svg>
