<svg width="12" height="12" viewBox="0 0 12 12" fill="none" xmlns="http://www.w3.org/2000/svg">
<path d="M3.74595 6.55305C3.79855 6.4653 3.89857 6.4106 4.00736 6.4106H5.70129V3.40036C5.70129 3.24836 5.83518 3.125 6.00015 3.125C6.16512 3.125 6.29901 3.24836 6.29901 3.40036V6.4106H7.99295C8.10213 6.4106 8.20215 6.4653 8.25435 6.55305C8.30735 6.6408 8.30376 6.74801 8.24598 6.83282L6.25319 9.7465C6.1982 9.82654 6.10296 9.875 6.00015 9.875C5.89734 9.875 5.80211 9.82654 5.74712 9.7465L3.75432 6.83282C3.72404 6.78803 3.7085 6.73699 3.7085 6.68596C3.7085 6.64043 3.72125 6.59454 3.74595 6.55305" fill="#343F48" fill-opacity="0.84"/>
</svg>
