<svg width="32" height="32" viewBox="0 0 32 32" fill="none" xmlns="http://www.w3.org/2000/svg">
<path d="M23.5128 9.57573C22.8256 8.82597 21.5845 8.77977 20.7571 9.60711L12.6571 17.7071C12.4476 17.9166 12.4476 18.1834 12.6571 18.3929C12.8666 18.6024 13.1334 18.6024 13.3429 18.3929L20.0429 11.6929C20.4334 11.3024 21.0666 11.3024 21.4571 11.6929C21.8476 12.0834 21.8476 12.7166 21.4571 13.1071L14.7571 19.8071C13.7666 20.7976 12.2334 20.7976 11.2429 19.8071C10.2524 18.8166 10.2524 17.2834 11.2429 16.2929L19.3429 8.1929C20.9104 6.62537 23.4578 6.57436 24.9723 8.20821C26.5246 9.77662 26.5703 12.3116 24.9429 13.8213L15.4571 23.3071C13.2666 25.4976 9.83342 25.4976 7.64289 23.3071C5.45237 21.1166 5.45237 17.6834 7.64289 15.4929L15.7429 7.3929C16.1334 7.00238 16.7666 7.00238 17.1571 7.3929C17.5476 7.78342 17.5476 8.41659 17.1571 8.80711L9.05711 16.9071C7.64763 18.3166 7.64763 20.4834 9.05711 21.8929C10.4666 23.3024 12.6334 23.3024 14.0429 21.8929L23.5429 12.3929C23.5531 12.3827 23.5636 12.3726 23.5743 12.3629C24.324 11.6756 24.3702 10.4345 23.5429 9.60711C23.5327 9.59687 23.5226 9.58641 23.5128 9.57573Z" fill="#0D0D0D"/>
</svg>
