<svg width="24" height="24" viewBox="0 0 24 24" fill="none" xmlns="http://www.w3.org/2000/svg">
<path d="M10.3521 5.0609C10.6163 4.43873 11.2546 4 12 4C12.7454 4 13.3837 4.43873 13.6479 5.0609C16.2846 5.75161 18.2222 8.05943 18.2222 10.8V14.7926L19.8507 17.1285C20.0326 17.3893 20.0495 17.7247 19.8948 18.0011C19.7401 18.2775 19.4389 18.45 19.1111 18.45H15.0796C14.8639 19.8917 13.5673 21 12 21C10.4327 21 9.13605 19.8917 8.9204 18.45H4.88889C4.56107 18.45 4.25986 18.2775 4.10518 18.0011C3.9505 17.7247 3.96745 17.3893 4.14929 17.1285L5.77778 14.7926V10.8C5.77778 8.05943 7.71541 5.75161 10.3521 5.0609ZM10.7425 18.45C10.9256 18.9452 11.4195 19.3 12 19.3C12.5805 19.3 13.0744 18.9452 13.2575 18.45H10.7425ZM12 6.55C9.5454 6.55 7.55556 8.45279 7.55556 10.8V15.05C7.55556 15.2178 7.50361 15.3819 7.40627 15.5215L6.54979 16.75H17.4502L16.5937 15.5215C16.4964 15.3819 16.4444 15.2178 16.4444 15.05V10.8C16.4444 8.45279 14.4546 6.55 12 6.55Z" fill="#343F48"/>
</svg>
