<svg width="32" height="32" viewBox="0 0 32 32" fill="none" xmlns="http://www.w3.org/2000/svg">
<path d="M8.15252 8H12.6425L14.0897 11.618L11.7648 13.1679C11.4866 13.3534 11.3195 13.6656 11.3195 14C11.322 14.0936 11.3195 14.001 11.3195 14.001L11.3195 14.002L11.3195 14.0043L11.3195 14.0093L11.3197 14.0217C11.3198 14.0309 11.3201 14.0421 11.3205 14.0552C11.3214 14.0814 11.3229 14.1153 11.3256 14.1564C11.3311 14.2385 11.3414 14.3494 11.3608 14.4852C11.3996 14.7565 11.4748 15.1281 11.6208 15.5662C11.9141 16.4459 12.4902 17.5849 13.6124 18.7071C14.7346 19.8293 15.8736 20.4054 16.7533 20.6987C17.1914 20.8447 17.563 20.9199 17.8343 20.9587C17.9701 20.9781 18.081 20.9884 18.1631 20.9939C18.2042 20.9966 18.2381 20.9981 18.2643 20.999C18.2774 20.9994 18.2886 20.9997 18.2978 20.9998L18.3102 21L18.3152 21L18.3175 21L18.3185 21C18.3185 21 18.4301 20.9939 18.3195 21C18.6983 21 19.0445 20.786 19.2139 20.4472L19.8836 19.1078L24.3195 19.8471V24.167C22.2084 24.4723 16.5069 24.7732 12.0266 20.2929C7.54631 15.8126 7.84722 10.1111 8.15252 8ZM13.3931 14.4861L15.1991 13.2821C15.986 12.7575 16.2979 11.7534 15.9466 10.8752L14.4994 7.25722C14.1957 6.4979 13.4603 6 12.6425 6H8.10028C7.19177 6 6.33659 6.63116 6.18744 7.6169C5.84813 9.8595 5.38629 16.481 10.6124 21.7071C15.8385 26.9332 22.46 26.4714 24.7026 26.1321C25.6883 25.9829 26.3195 25.1277 26.3195 24.2192V19.8471C26.3195 18.8694 25.6127 18.0351 24.6483 17.8743L20.2124 17.135C19.3464 16.9907 18.4874 17.4281 18.0948 18.2134L17.7483 18.9064C17.6394 18.8796 17.5178 18.8453 17.3857 18.8013C16.7654 18.5946 15.9044 18.1707 15.0266 17.2929C14.1488 16.4151 13.7249 15.5541 13.5182 14.9338C13.4623 14.7662 13.4221 14.6154 13.3931 14.4861Z" fill="#0D0D0D"/>
</svg>
