<svg width="12" height="12" viewBox="0 0 12 12" fill="none" xmlns="http://www.w3.org/2000/svg">
<path fill-rule="evenodd" clip-rule="evenodd" d="M8.95026 3.87515C9.15046 3.67495 9.15046 3.35035 8.95026 3.15015C8.75005 2.94995 8.42546 2.94995 8.22526 3.15015L6.05017 5.32525L3.87515 3.15023C3.67495 2.95003 3.35035 2.95003 3.15015 3.15023C2.94995 3.35043 2.94995 3.67502 3.15015 3.87523L5.32517 6.05024L3.15028 8.22513C2.95008 8.42533 2.95008 8.74992 3.15028 8.95013C3.35049 9.15033 3.67508 9.15033 3.87528 8.95012L6.05017 6.77524L8.22513 8.9502C8.42533 9.1504 8.74992 9.1504 8.95013 8.9502C9.15033 8.75 9.15033 8.42541 8.95012 8.22521L6.77516 6.05024L8.95026 3.87515Z" fill="#343F48" fill-opacity="0.5"/>
</svg>
