<svg width="16" height="16" viewBox="0 0 16 16" fill="none" xmlns="http://www.w3.org/2000/svg">
<path fill-rule="evenodd" clip-rule="evenodd" d="M4.44898 3.24861C4.11751 2.91713 3.58008 2.91713 3.24861 3.24861C2.91713 3.58008 2.91713 4.11751 3.24861 4.44898L6.85008 8.05046L3.24914 11.6514C2.91766 11.9829 2.91766 12.5203 3.24914 12.8518C3.58061 13.1833 4.11804 13.1833 4.44951 12.8518L8.05046 9.25084L11.6512 12.8516C11.9827 13.1831 12.5201 13.1831 12.8516 12.8516C13.1831 12.5201 13.1831 11.9827 12.8516 11.6512L9.25084 8.05046L12.8521 4.44915C13.1836 4.11768 13.1836 3.58025 12.8521 3.24877C12.5207 2.9173 11.9832 2.9173 11.6518 3.24877L8.05046 6.85008L4.44898 3.24861Z" fill="#343F48" fill-opacity="0.25"/>
</svg>
