<svg width="12" height="12" viewBox="0 0 12 12" fill="none" xmlns="http://www.w3.org/2000/svg">
<path d="M7.5 6C7.5 6.71008 6.82843 7.28571 6 7.28571C5.17157 7.28571 4.5 6.71008 4.5 6C4.5 5.28992 5.17157 4.71429 6 4.71429C6.82843 4.71429 7.5 5.28992 7.5 6Z" fill="#343F48" fill-opacity="0.37"/>
<path d="M10.9472 5.80834C9.8681 3.95843 7.95156 3 6 3C4.04844 3 2.1319 3.95843 1.05279 5.80834C0.982405 5.92899 0.982405 6.07101 1.05279 6.19166C2.1319 8.04157 4.04844 9 6 9C7.95156 9 9.8681 8.04157 10.9472 6.19166C11.0176 6.07101 11.0176 5.92899 10.9472 5.80834ZM6 8.14286C4.51561 8.14286 2.99903 7.44824 2.06483 6C2.99903 4.55176 4.51561 3.85714 6 3.85714C7.48439 3.85714 9.00097 4.55176 9.93517 6C9.00097 7.44824 7.48439 8.14286 6 8.14286Z" fill="#343F48" fill-opacity="0.37"/>
</svg>
