<svg width="24" height="24" viewBox="0 0 24 24" fill="none" xmlns="http://www.w3.org/2000/svg">
<path d="M17.194 4.24665C17.5229 3.91778 18.0561 3.91778 18.3849 4.24665L21.7534 7.61507C22.0822 7.94393 22.0822 8.47712 21.7534 8.80598L10.806 19.7534C10.6481 19.9113 10.4339 20 10.2105 20H6.84211C6.37702 20 6 19.623 6 19.1579V15.7895C6 15.5661 6.08872 15.3519 6.24665 15.194L14.6675 6.77314L17.194 4.24665ZM15.2632 8.55934L7.68421 16.1383V18.3158H9.86171L17.4407 10.7368L15.2632 8.55934ZM18.6316 9.54593L19.967 8.21053L17.7895 6.03302L16.4541 7.36842L18.6316 9.54593Z" fill="#343F48"/>
</svg>
