<svg width="12" height="12" viewBox="0 0 12 12" fill="none" xmlns="http://www.w3.org/2000/svg">
<path d="M2 3.5C2 3.22386 2.22386 3 2.5 3H9.5C9.77614 3 10 3.22386 10 3.5C10 3.77614 9.77614 4 9.5 4H2.5C2.22386 4 2 3.77614 2 3.5ZM3 6C3 5.72386 3.22386 5.5 3.5 5.5H8.5C8.77614 5.5 9 5.72386 9 6C9 6.27614 8.77614 6.5 8.5 6.5H3.5C3.22386 6.5 3 6.27614 3 6ZM4 8.5C4 8.22386 4.22386 8 4.5 8H7.5C7.77614 8 8 8.22386 8 8.5C8 8.77614 7.77614 9 7.5 9H4.5C4.22386 9 4 8.77614 4 8.5Z" fill="#343F48" fill-opacity="0.37"/>
</svg>
