<svg width="32" height="32" viewBox="0 0 32 32" fill="none" xmlns="http://www.w3.org/2000/svg">
<path d="M6 8.5C6 7.11929 7.02974 6 8.3 6L18.65 6C19.9203 6 20.95 7.11929 20.95 8.5L20.95 11C20.95 11.6904 20.4351 12.25 19.8 12.25C19.1649 12.25 18.65 11.6904 18.65 11L18.65 8.5L8.3 8.5L8.3 23.5H18.65V21C18.65 20.3096 19.1649 19.75 19.8 19.75C20.4351 19.75 20.95 20.3096 20.95 21V23.5C20.95 24.8807 19.9203 26 18.65 26H8.3C7.02975 26 6 24.8807 6 23.5L6 8.5ZM23.5868 11.3661C24.0359 10.878 24.7641 10.878 25.2132 11.3661L28.6632 15.1161C29.1123 15.6043 29.1123 16.3957 28.6632 16.8839L25.2132 20.6339C24.7641 21.122 24.0359 21.122 23.5868 20.6339C23.1377 20.1457 23.1377 19.3543 23.5868 18.8661L25.0737 17.25H14.05C13.4149 17.25 12.9 16.6904 12.9 16C12.9 15.3096 13.4149 14.75 14.05 14.75L25.0737 14.75L23.5868 13.1339C23.1377 12.6457 23.1377 11.8543 23.5868 11.3661Z" fill="#0D0D0D"/>
</svg>
