<svg width="32" height="32" viewBox="0 0 32 32" fill="none" xmlns="http://www.w3.org/2000/svg">
<path d="M7 10.125C7 8.9514 7.89543 8 9 8L18 8C19.1046 8 20 8.9514 20 10.125L20 12.25C20 12.8368 19.5523 13.3125 19 13.3125C18.4477 13.3125 18 12.8368 18 12.25L18 10.125L9 10.125L9 22.875H18V20.75C18 20.1632 18.4477 19.6875 19 19.6875C19.5523 19.6875 20 20.1632 20 20.75V22.875C20 24.0486 19.1046 25 18 25H9C7.89543 25 7 24.0486 7 22.875L7 10.125ZM22.2929 12.5612C22.6834 12.1463 23.3166 12.1463 23.7071 12.5612L26.7071 15.7487C27.0976 16.1636 27.0976 16.8364 26.7071 17.2513L23.7071 20.4388C23.3166 20.8537 22.6834 20.8537 22.2929 20.4388C21.9024 20.0239 21.9024 19.3511 22.2929 18.9362L23.5858 17.5625H14C13.4477 17.5625 13 17.0868 13 16.5C13 15.9132 13.4477 15.4375 14 15.4375L23.5858 15.4375L22.2929 14.0638C21.9024 13.6489 21.9024 12.9761 22.2929 12.5612Z" fill="#0D0D0D"/>
</svg>
