<svg width="40" height="40" viewBox="0 0 40 40" fill="none" xmlns="http://www.w3.org/2000/svg">
<path d="M19.5 8.9C13.0935 8.9 7.9 14.0935 7.9 20.5C7.9 26.9065 13.0935 32.1 19.5 32.1C25.9065 32.1 31.1 26.9065 31.1 20.5C31.1 14.0935 25.9065 8.9 19.5 8.9ZM5 20.5C5 12.4919 11.4919 6 19.5 6C27.5081 6 34 12.4919 34 20.5C34 28.5081 27.5081 35 19.5 35C11.4919 35 5 28.5081 5 20.5ZM19.5 13.25C20.3008 13.25 20.95 13.8992 20.95 14.7V19.05H25.3C26.1008 19.05 26.75 19.6992 26.75 20.5C26.75 21.3008 26.1008 21.95 25.3 21.95H20.95V26.3C20.95 27.1008 20.3008 27.75 19.5 27.75C18.6992 27.75 18.05 27.1008 18.05 26.3V21.95H13.7C12.8992 21.95 12.25 21.3008 12.25 20.5C12.25 19.6992 12.8992 19.05 13.7 19.05H18.05V14.7C18.05 13.8992 18.6992 13.25 19.5 13.25Z" fill="#343F48" fill-opacity="0.2"/>
</svg>
