<svg width="24" height="24" viewBox="0 0 24 24" fill="none" xmlns="http://www.w3.org/2000/svg">
<path fill-rule="evenodd" clip-rule="evenodd" d="M12 22C17.5228 22 22 17.5228 22 12C22 6.47715 17.5228 2 12 2C6.47715 2 2 6.47715 2 12C2 17.5228 6.47715 22 12 22ZM6.44444 18C6.44444 18.0226 6.4169 18.0359 6.40033 18.0204C4.78708 16.5193 3.77799 14.3775 3.77799 12C3.77799 7.45911 7.45911 3.77799 12 3.77799C16.5409 3.77799 20.222 7.45911 20.222 12C20.222 14.3775 19.2129 16.5193 17.5997 18.0204C17.5831 18.0359 17.5556 18.0226 17.5556 18V18C17.5556 16.159 16.1737 14.6667 14.4691 14.6667H9.53086C7.82628 14.6667 6.44444 16.159 6.44444 18V18ZM7.67901 18C7.67901 18.3414 7.6293 18.9737 7.92571 19.1432C9.12673 19.8297 10.5175 20.222 12 20.222C13.4825 20.222 14.8733 19.8297 16.0743 19.1432C16.3707 18.9737 16.321 18.3414 16.321 18V18C16.321 16.8954 15.4919 16 14.4691 16H9.53086C8.50811 16 7.67901 16.8954 7.67901 18V18ZM9.53086 9.33333C9.53086 7.86057 10.6363 6.66667 12 6.66667C13.3637 6.66667 14.4691 7.86057 14.4691 9.33333C14.4691 10.8061 13.3637 12 12 12C10.6363 12 9.53086 10.8061 9.53086 9.33333ZM12 5.33333C9.9545 5.33333 8.2963 7.12419 8.2963 9.33333C8.2963 11.5425 9.9545 13.3333 12 13.3333C14.0455 13.3333 15.7037 11.5425 15.7037 9.33333C15.7037 7.12419 14.0455 5.33333 12 5.33333Z" fill="#343F48" fill-opacity="0.75"/>
</svg>
