<svg width="24" height="24" viewBox="0 0 24 24" fill="none" xmlns="http://www.w3.org/2000/svg">
<path fill-rule="evenodd" clip-rule="evenodd" d="M12 21C16.9706 21 21 16.9706 21 12C21 7.02944 16.9706 3 12 3C7.02944 3 3 7.02944 3 12C3 16.9706 7.02944 21 12 21ZM7 17.4C7 17.4204 6.97521 17.4323 6.9603 17.4184C5.50837 16.0673 4.60019 14.1397 4.60019 12C4.60019 7.9132 7.9132 4.60019 12 4.60019C16.0868 4.60019 19.3998 7.9132 19.3998 12C19.3998 14.1397 18.4916 16.0673 17.0397 17.4184C17.0248 17.4323 17 17.4204 17 17.4C17 15.7431 15.7563 14.4 14.2222 14.4H9.77778C8.24365 14.4 7 15.7431 7 17.4ZM8.11111 17.4C8.11111 17.7073 8.06637 18.2764 8.33314 18.4289C9.41406 19.0467 10.6658 19.3998 12 19.3998C13.3342 19.3998 14.5859 19.0467 15.6669 18.4288C15.9336 18.2764 15.8889 17.7073 15.8889 17.4C15.8889 16.4059 15.1427 15.6 14.2222 15.6H9.77778C8.8573 15.6 8.11111 16.4059 8.11111 17.4ZM9.77778 9.6C9.77778 8.27452 10.7727 7.2 12 7.2C13.2273 7.2 14.2222 8.27452 14.2222 9.6C14.2222 10.9255 13.2273 12 12 12C10.7727 12 9.77778 10.9255 9.77778 9.6ZM12 6C10.1591 6 8.66667 7.61177 8.66667 9.6C8.66667 11.5882 10.1591 13.2 12 13.2C13.8409 13.2 15.3333 11.5882 15.3333 9.6C15.3333 7.61177 13.8409 6 12 6Z" fill="#343F48"/>
</svg>
