<svg width="24" height="24" viewBox="0 0 24 24" fill="none" xmlns="http://www.w3.org/2000/svg">
<path d="M12 3.9C9.79086 3.9 8 5.60132 8 7.7C8 9.79868 9.79086 11.5 12 11.5C14.2091 11.5 16 9.79868 16 7.7C16 5.60132 14.2091 3.9 12 3.9ZM6 7.7C6 4.55198 8.68629 2 12 2C15.3137 2 18 4.55198 18 7.7C18 10.848 15.3137 13.4 12 13.4C8.68629 13.4 6 10.848 6 7.7ZM8 17.2C6.34315 17.2 5 18.476 5 20.05C5 20.5747 4.55228 21 4 21C3.44772 21 3 20.5747 3 20.05C3 17.4266 5.23858 15.3 8 15.3H16C18.7614 15.3 21 17.4266 21 20.05C21 20.5747 20.5523 21 20 21C19.4477 21 19 20.5747 19 20.05C19 18.476 17.6569 17.2 16 17.2H8Z" fill="#343F48" fill-opacity="0.75"/>
</svg>
