<svg width="178" height="26" viewBox="0 0 178 26" fill="none" xmlns="http://www.w3.org/2000/svg">
<path d="M113.508 18.8523C113.322 19.0867 113.061 19.3181 112.723 19.5464C112.385 19.7747 111.988 19.9818 111.531 20.1644C111.072 20.3471 110.562 20.4993 109.995 20.6181C109.429 20.7368 108.824 20.7947 108.178 20.7947C106.945 20.7947 105.827 20.612 104.825 20.2436C103.823 19.8752 102.966 19.3485 102.258 18.6666C101.549 17.9846 100.998 17.1473 100.604 16.1609C100.209 15.1745 100.014 14.0572 100.014 12.8059C100.014 11.6429 100.206 10.5773 100.595 9.60613C100.983 8.63492 101.531 7.7977 102.249 7.09137C102.966 6.38505 103.829 5.83703 104.837 5.44734C105.848 5.05766 106.974 4.86279 108.223 4.86279C109.411 4.86279 110.428 5.01503 111.273 5.31643C112.118 5.61782 112.764 5.93142 113.206 6.25413V10.0933C112.978 9.7553 112.693 9.42346 112.358 9.10075C112.02 8.77801 111.641 8.49183 111.22 8.23914C110.796 7.98949 110.33 7.78551 109.824 7.63329C109.314 7.47801 108.78 7.40192 108.223 7.40192C107.407 7.40192 106.669 7.53586 106.008 7.7977C105.35 8.06256 104.79 8.43096 104.333 8.89981C103.874 9.37171 103.524 9.94102 103.281 10.6108C103.038 11.2806 102.916 12.0204 102.916 12.8302C102.916 13.5792 103.026 14.2825 103.248 14.937C103.47 15.5916 103.799 16.1609 104.235 16.6481C104.671 17.1321 105.22 17.5188 105.881 17.808C106.539 18.0942 107.298 18.2464 108.157 18.2616C108.815 18.2616 109.42 18.1886 109.972 18.0394C110.523 17.8933 111.024 17.6954 111.475 17.4427C111.925 17.193 112.323 16.8977 112.667 16.5597C113.011 16.2218 113.289 15.8534 113.505 15.4577V18.8523H113.508Z" fill="#343F48"/>
<path d="M119.399 18.0147H127.566V20.5538H116.713V5.10303H119.399V18.0147Z" fill="#343F48"/>
<path d="M128.23 12.8059C128.23 11.6429 128.42 10.5773 128.8 9.60613C129.179 8.63492 129.719 7.7977 130.421 7.09137C131.124 6.38505 131.969 5.83703 132.956 5.44734C133.943 5.05766 135.055 4.86279 136.288 4.86279C137.492 4.86279 138.592 5.04547 139.588 5.41386C140.584 5.78223 141.432 6.30893 142.135 6.99089C142.837 7.67593 143.38 8.5101 143.768 9.49653C144.153 10.4829 144.349 11.6003 144.349 12.8516C144.349 14.0145 144.159 15.0801 143.78 16.0513C143.4 17.0225 142.858 17.8597 142.158 18.5661C141.456 19.2724 140.608 19.8204 139.612 20.2101C138.615 20.5998 137.51 20.7947 136.291 20.7947C135.088 20.7947 133.988 20.615 132.992 20.2527C131.995 19.8935 131.148 19.3698 130.445 18.6848C129.742 17.9998 129.2 17.1626 128.812 16.1701C128.423 15.1776 128.23 14.0572 128.23 12.8059ZM131.068 12.8272C131.068 13.5762 131.177 14.2825 131.4 14.9462C131.622 15.6068 131.954 16.1822 132.399 16.6663C132.843 17.1504 133.392 17.537 134.044 17.8263C134.696 18.1124 135.452 18.2555 136.312 18.2555C137.115 18.2555 137.833 18.1216 138.47 17.8567C139.108 17.5918 139.653 17.2235 140.104 16.7546C140.554 16.2827 140.901 15.7134 141.147 15.0436C141.39 14.3738 141.512 13.634 141.512 12.8241C141.512 12.0752 141.399 11.3689 141.18 10.7052C140.957 10.0445 140.625 9.46912 140.181 8.98505C139.736 8.50098 139.188 8.11432 138.535 7.82509C137.883 7.53891 137.127 7.39582 136.267 7.39582C135.464 7.39582 134.741 7.52979 134.097 7.7916C133.454 8.05647 132.906 8.42791 132.452 8.90588C132.002 9.38388 131.658 9.95319 131.42 10.6169C131.186 11.2836 131.068 12.0174 131.068 12.8272Z" fill="#343F48"/>
<path d="M150.171 14.2396C150.171 14.9459 150.269 15.5517 150.462 16.0602C150.655 16.5686 150.924 16.9857 151.268 17.3175C151.612 17.6494 152.021 17.8899 152.493 18.0452C152.964 18.2004 153.48 18.2766 154.04 18.2766C155.173 18.2766 156.05 17.9813 156.673 17.3937C157.295 16.8061 157.607 15.841 157.607 14.5014V5.10303H160.293V14.2182C160.293 15.3508 160.144 16.3342 159.851 17.1653C159.557 17.9965 159.133 18.6845 158.582 19.2295C158.031 19.7744 157.364 20.1763 156.584 20.4321C155.804 20.6909 154.918 20.8187 153.931 20.8187C152.828 20.8187 151.873 20.6665 151.073 20.3651C150.269 20.0637 149.599 19.6344 149.063 19.0742C148.526 18.514 148.129 17.8412 147.871 17.0557C147.613 16.2702 147.486 15.3813 147.486 14.3979V5.10303H150.171V14.2396Z" fill="#343F48"/>
<path d="M169.726 5.10303C172.518 5.10303 174.597 5.74238 175.957 7.02411C177.318 8.3028 178 10.1356 178 12.5194C178 13.9321 177.795 15.1468 177.386 16.1606C176.977 17.1744 176.405 18.0086 175.667 18.6541C174.929 19.3026 174.048 19.7805 173.022 20.088C171.997 20.3986 170.876 20.5508 169.66 20.5508H164.547V5.10303H169.726ZM169.66 18.0147C171.537 18.0147 172.928 17.5672 173.829 16.6691C174.73 15.7709 175.184 14.477 175.184 12.7843C175.184 11.0642 174.742 9.77633 173.861 8.92081C172.981 8.06837 171.588 7.64213 169.681 7.64213H167.233V18.0147H169.66Z" fill="#343F48"/>
<path d="M39.5151 11.5422C37.7481 11.1129 36.2212 10.7445 36.2212 9.48107C36.2212 7.78529 38.252 7.60262 39.1267 7.60262C40.3392 7.60262 41.027 7.7731 41.9283 8.19324C42.367 7.86138 44.3621 6.35132 44.3621 6.35132C43.0459 5.48973 41.0685 4.81689 39.1474 4.81689C34.5642 4.81689 32.9336 7.31946 32.9336 9.6607C32.9336 13.034 35.7885 13.7342 38.3084 14.3553C40.0783 14.7907 41.6051 15.1651 41.6051 16.4529C41.6051 17.1136 41.2225 18.2188 38.6553 18.2188C36.9535 18.2188 35.0858 17.6038 33.7638 16.6113L32.6489 19.2265C33.998 20.3073 36.3398 21.0014 38.6346 21.0014C42.435 21.0014 44.8927 19.1078 44.8927 16.179C44.8957 12.8452 42.035 12.1541 39.5151 11.5422Z" fill="#343F48"/>
<path d="M58.8144 12.6627L58.6573 12.6079L58.8025 12.5257C60.0565 11.8285 60.7473 10.6168 60.7473 9.11588C60.7473 6.592 58.6632 5.08496 55.171 5.08496H47.9551V20.7306H55.5979C59.3985 20.7306 61.4915 19.2267 61.4915 16.4957C61.4915 14.6386 60.516 13.2412 58.8144 12.6627ZM51.2429 7.69106H54.7439C56.9527 7.69106 57.415 8.73532 57.415 9.603C57.415 10.8604 56.4902 11.5149 54.7439 11.5149H51.2429V7.69106ZM51.2429 11.518H54.7439H51.2429ZM55.3399 18.1276H51.2399V14.121H55.3399C57.2107 14.121 58.1592 14.7878 58.1592 16.1243C58.1622 17.4639 57.2402 18.1276 55.3399 18.1276Z" fill="#343F48"/>
<path d="M72.6295 7.69094L76.0713 5.08789H64.5508V20.7305H76.0713V18.1275H67.8386V14.1209H74.8588V11.5179H67.8386V7.69094H72.6295Z" fill="#343F48"/>
<path d="M92.1247 20.7305L88.7777 15.6492C90.7522 14.7633 91.8906 13.0218 91.8906 10.6867C91.8906 7.23426 89.4031 5.08789 85.404 5.08789H79.1338V20.7335H82.4216V16.3008H85.407C85.5018 16.3008 85.5936 16.2977 85.6856 16.2947L88.6058 20.7305H92.1247ZM82.4186 7.69094H85.3329C87.4378 7.69094 88.5997 8.75651 88.5997 10.6928C88.5997 12.6291 87.4406 13.6947 85.3329 13.6947H82.4186V7.69094Z" fill="#343F48"/>
<path fill-rule="evenodd" clip-rule="evenodd" d="M22.4108 12.9609C22.4108 18.4906 18.0457 22.9732 12.6611 22.9732C7.27661 22.9732 2.91158 18.4906 2.91158 12.9609C2.91158 7.43128 7.27661 2.94859 12.6611 2.94859C14.725 2.94859 16.6392 3.6072 18.2151 4.73091L20.5956 2.89746C18.4288 1.09351 15.6679 0.0126953 12.6611 0.0126953C5.69771 0.0126953 0.0527344 5.80982 0.0527344 12.9609C0.0527344 20.1121 5.69771 25.9092 12.6611 25.9092C19.6246 25.9092 25.2696 20.1121 25.2696 12.9609C25.2696 12.153 25.1975 11.3623 25.0596 10.5953L22.3965 12.4185C22.4061 12.5981 22.4108 12.7789 22.4108 12.9609Z" fill="#343F48"/>
<path fill-rule="evenodd" clip-rule="evenodd" d="M22.4108 12.9609C22.4108 18.4906 18.0457 22.9732 12.6611 22.9732C7.27661 22.9732 2.91158 18.4906 2.91158 12.9609C2.91158 7.43128 7.27661 2.94859 12.6611 2.94859C14.725 2.94859 16.6392 3.6072 18.2151 4.73091L20.5956 2.89746C18.4288 1.09351 15.6679 0.0126953 12.6611 0.0126953C5.69771 0.0126953 0.0527344 5.80982 0.0527344 12.9609C0.0527344 20.1121 5.69771 25.9092 12.6611 25.9092C19.6246 25.9092 25.2696 20.1121 25.2696 12.9609C25.2696 12.153 25.1975 11.3623 25.0596 10.5953L22.3965 12.4185C22.4061 12.5981 22.4108 12.7789 22.4108 12.9609Z" fill="#343F48"/>
<path fill-rule="evenodd" clip-rule="evenodd" d="M22.4108 12.9609C22.4108 18.4906 18.0457 22.9732 12.6611 22.9732C7.27661 22.9732 2.91158 18.4906 2.91158 12.9609C2.91158 7.43128 7.27661 2.94859 12.6611 2.94859C14.725 2.94859 16.6392 3.6072 18.2151 4.73091L20.5956 2.89746C18.4288 1.09351 15.6679 0.0126953 12.6611 0.0126953C5.69771 0.0126953 0.0527344 5.80982 0.0527344 12.9609C0.0527344 20.1121 5.69771 25.9092 12.6611 25.9092C19.6246 25.9092 25.2696 20.1121 25.2696 12.9609C25.2696 12.153 25.1975 11.3623 25.0596 10.5953L22.3965 12.4185C22.4061 12.5981 22.4108 12.7789 22.4108 12.9609Z" fill="#343F48"/>
<path d="M22.6593 5.20508C23.2493 5.98795 23.7517 6.83983 24.1548 7.75171L12.7898 16.3545L8.04053 13.2949V9.62044L12.7898 12.677L22.6593 5.20508Z" fill="#343F48"/>
</svg>
